<?xml version="1.0" encoding="utf-8"?>
<svg xmlns="http://www.w3.org/2000/svg" xmlns:xlink="http://www.w3.org/1999/xlink" width="500" height="300" viewBox="0 0 2000 1200">
<defs>
  <clipPath id="clip920">
    <rect x="0" y="0" width="2000" height="1200"/>
  </clipPath>
</defs>
<path clip-path="url(#clip920)" d="
M0 1200 L2000 1200 L2000 0 L0 0  Z
  " fill="#ffffff" fill-rule="evenodd" fill-opacity="1"/>
<defs>
  <clipPath id="clip921">
    <rect x="400" y="0" width="1401" height="1200"/>
  </clipPath>
</defs>
<path clip-path="url(#clip920)" d="
M166.693 1035.39 L1952.76 1035.39 L1952.76 47.2441 L166.693 47.2441  Z
  " fill="#ffffff" fill-rule="evenodd" fill-opacity="1"/>
<defs>
  <clipPath id="clip922">
    <rect x="166" y="47" width="1787" height="989"/>
  </clipPath>
</defs>
<polyline clip-path="url(#clip920)" style="stroke:#000000; stroke-width:4; stroke-opacity:1; fill:none" points="
  166.693,1035.39 1952.76,1035.39 
  "/>
<polyline clip-path="url(#clip920)" style="stroke:#000000; stroke-width:4; stroke-opacity:1; fill:none" points="
  217.242,1035.39 217.242,1023.53 
  "/>
<polyline clip-path="url(#clip920)" style="stroke:#000000; stroke-width:4; stroke-opacity:1; fill:none" points="
  541.274,1035.39 541.274,1023.53 
  "/>
<polyline clip-path="url(#clip920)" style="stroke:#000000; stroke-width:4; stroke-opacity:1; fill:none" points="
  865.306,1035.39 865.306,1023.53 
  "/>
<polyline clip-path="url(#clip920)" style="stroke:#000000; stroke-width:4; stroke-opacity:1; fill:none" points="
  1189.34,1035.39 1189.34,1023.53 
  "/>
<polyline clip-path="url(#clip920)" style="stroke:#000000; stroke-width:4; stroke-opacity:1; fill:none" points="
  1513.37,1035.39 1513.37,1023.53 
  "/>
<polyline clip-path="url(#clip920)" style="stroke:#000000; stroke-width:4; stroke-opacity:1; fill:none" points="
  1837.4,1035.39 1837.4,1023.53 
  "/>
<path clip-path="url(#clip920)" d="M 0 0 M217.242 1061.38 Q213.631 1061.38 211.802 1064.94 Q209.997 1068.48 209.997 1075.61 Q209.997 1082.72 211.802 1086.29 Q213.631 1089.83 217.242 1089.83 Q220.876 1089.83 222.682 1086.29 Q224.511 1082.72 224.511 1075.61 Q224.511 1068.48 222.682 1064.94 Q220.876 1061.38 217.242 1061.38 M217.242 1057.67 Q223.052 1057.67 226.108 1062.28 Q229.187 1066.86 229.187 1075.61 Q229.187 1084.34 226.108 1088.95 Q223.052 1093.53 217.242 1093.53 Q211.432 1093.53 208.353 1088.95 Q205.298 1084.34 205.298 1075.61 Q205.298 1066.86 208.353 1062.28 Q211.432 1057.67 217.242 1057.67 Z" fill="#000000" fill-rule="evenodd" fill-opacity="1" /><path clip-path="url(#clip920)" d="M 0 0 M531.552 1058.3 L549.908 1058.3 L549.908 1062.24 L535.834 1062.24 L535.834 1070.71 Q536.853 1070.36 537.871 1070.2 Q538.89 1070.01 539.908 1070.01 Q545.695 1070.01 549.075 1073.18 Q552.454 1076.36 552.454 1081.77 Q552.454 1087.35 548.982 1090.45 Q545.51 1093.53 539.191 1093.53 Q537.015 1093.53 534.746 1093.16 Q532.501 1092.79 530.093 1092.05 L530.093 1087.35 Q532.177 1088.48 534.399 1089.04 Q536.621 1089.6 539.098 1089.6 Q543.103 1089.6 545.44 1087.49 Q547.778 1085.38 547.778 1081.77 Q547.778 1078.16 545.44 1076.05 Q543.103 1073.95 539.098 1073.95 Q537.223 1073.95 535.348 1074.36 Q533.496 1074.78 531.552 1075.66 L531.552 1058.3 Z" fill="#000000" fill-rule="evenodd" fill-opacity="1" /><path clip-path="url(#clip920)" d="M 0 0 M842.181 1088.92 L849.82 1088.92 L849.82 1062.56 L841.509 1064.23 L841.509 1059.97 L849.773 1058.3 L854.449 1058.3 L854.449 1088.92 L862.088 1088.92 L862.088 1092.86 L842.181 1092.86 L842.181 1088.92 Z" fill="#000000" fill-rule="evenodd" fill-opacity="1" /><path clip-path="url(#clip920)" d="M 0 0 M877.157 1061.38 Q873.546 1061.38 871.718 1064.94 Q869.912 1068.48 869.912 1075.61 Q869.912 1082.72 871.718 1086.29 Q873.546 1089.83 877.157 1089.83 Q880.792 1089.83 882.597 1086.29 Q884.426 1082.72 884.426 1075.61 Q884.426 1068.48 882.597 1064.94 Q880.792 1061.38 877.157 1061.38 M877.157 1057.67 Q882.967 1057.67 886.023 1062.28 Q889.102 1066.86 889.102 1075.61 Q889.102 1084.34 886.023 1088.95 Q882.967 1093.53 877.157 1093.53 Q871.347 1093.53 868.268 1088.95 Q865.213 1084.34 865.213 1075.61 Q865.213 1066.86 868.268 1062.28 Q871.347 1057.67 877.157 1057.67 Z" fill="#000000" fill-rule="evenodd" fill-opacity="1" /><path clip-path="url(#clip920)" d="M 0 0 M1166.71 1088.92 L1174.35 1088.92 L1174.35 1062.56 L1166.04 1064.23 L1166.04 1059.97 L1174.3 1058.3 L1178.98 1058.3 L1178.98 1088.92 L1186.62 1088.92 L1186.62 1092.86 L1166.71 1092.86 L1166.71 1088.92 Z" fill="#000000" fill-rule="evenodd" fill-opacity="1" /><path clip-path="url(#clip920)" d="M 0 0 M1191.73 1058.3 L1210.09 1058.3 L1210.09 1062.24 L1196.02 1062.24 L1196.02 1070.71 Q1197.03 1070.36 1198.05 1070.2 Q1199.07 1070.01 1200.09 1070.01 Q1205.88 1070.01 1209.26 1073.18 Q1212.64 1076.36 1212.64 1081.77 Q1212.64 1087.35 1209.16 1090.45 Q1205.69 1093.53 1199.37 1093.53 Q1197.2 1093.53 1194.93 1093.16 Q1192.68 1092.79 1190.27 1092.05 L1190.27 1087.35 Q1192.36 1088.48 1194.58 1089.04 Q1196.8 1089.6 1199.28 1089.6 Q1203.28 1089.6 1205.62 1087.49 Q1207.96 1085.38 1207.96 1081.77 Q1207.96 1078.16 1205.62 1076.05 Q1203.28 1073.95 1199.28 1073.95 Q1197.4 1073.95 1195.53 1074.36 Q1193.68 1074.78 1191.73 1075.66 L1191.73 1058.3 Z" fill="#000000" fill-rule="evenodd" fill-opacity="1" /><path clip-path="url(#clip920)" d="M 0 0 M1494.51 1088.92 L1510.83 1088.92 L1510.83 1092.86 L1488.89 1092.86 L1488.89 1088.92 Q1491.55 1086.17 1496.14 1081.54 Q1500.74 1076.89 1501.92 1075.55 Q1504.17 1073.02 1505.05 1071.29 Q1505.95 1069.53 1505.95 1067.84 Q1505.95 1065.08 1504.01 1063.35 Q1502.08 1061.61 1498.98 1061.61 Q1496.78 1061.61 1494.33 1062.37 Q1491.9 1063.14 1489.12 1064.69 L1489.12 1059.97 Q1491.95 1058.83 1494.4 1058.25 Q1496.85 1057.67 1498.89 1057.67 Q1504.26 1057.67 1507.45 1060.36 Q1510.65 1063.05 1510.65 1067.54 Q1510.65 1069.67 1509.84 1071.59 Q1509.05 1073.48 1506.95 1076.08 Q1506.37 1076.75 1503.26 1079.97 Q1500.16 1083.16 1494.51 1088.92 Z" fill="#000000" fill-rule="evenodd" fill-opacity="1" /><path clip-path="url(#clip920)" d="M 0 0 M1525.9 1061.38 Q1522.29 1061.38 1520.46 1064.94 Q1518.66 1068.48 1518.66 1075.61 Q1518.66 1082.72 1520.46 1086.29 Q1522.29 1089.83 1525.9 1089.83 Q1529.54 1089.83 1531.34 1086.29 Q1533.17 1082.72 1533.17 1075.61 Q1533.17 1068.48 1531.34 1064.94 Q1529.54 1061.38 1525.9 1061.38 M1525.9 1057.67 Q1531.71 1057.67 1534.77 1062.28 Q1537.85 1066.86 1537.85 1075.61 Q1537.85 1084.34 1534.77 1088.95 Q1531.71 1093.53 1525.9 1093.53 Q1520.09 1093.53 1517.01 1088.95 Q1513.96 1084.34 1513.96 1075.61 Q1513.96 1066.86 1517.01 1062.28 Q1520.09 1057.67 1525.9 1057.67 Z" fill="#000000" fill-rule="evenodd" fill-opacity="1" /><path clip-path="url(#clip920)" d="M 0 0 M1819.04 1088.92 L1835.36 1088.92 L1835.36 1092.86 L1813.42 1092.86 L1813.42 1088.92 Q1816.08 1086.17 1820.66 1081.54 Q1825.27 1076.89 1826.45 1075.55 Q1828.7 1073.02 1829.58 1071.29 Q1830.48 1069.53 1830.48 1067.84 Q1830.48 1065.08 1828.53 1063.35 Q1826.61 1061.61 1823.51 1061.61 Q1821.31 1061.61 1818.86 1062.37 Q1816.43 1063.14 1813.65 1064.69 L1813.65 1059.97 Q1816.47 1058.83 1818.93 1058.25 Q1821.38 1057.67 1823.42 1057.67 Q1828.79 1057.67 1831.98 1060.36 Q1835.18 1063.05 1835.18 1067.54 Q1835.18 1069.67 1834.37 1071.59 Q1833.58 1073.48 1831.47 1076.08 Q1830.9 1076.75 1827.79 1079.97 Q1824.69 1083.16 1819.04 1088.92 Z" fill="#000000" fill-rule="evenodd" fill-opacity="1" /><path clip-path="url(#clip920)" d="M 0 0 M1840.48 1058.3 L1858.84 1058.3 L1858.84 1062.24 L1844.76 1062.24 L1844.76 1070.71 Q1845.78 1070.36 1846.8 1070.2 Q1847.82 1070.01 1848.84 1070.01 Q1854.62 1070.01 1858 1073.18 Q1861.38 1076.36 1861.38 1081.77 Q1861.38 1087.35 1857.91 1090.45 Q1854.44 1093.53 1848.12 1093.53 Q1845.94 1093.53 1843.67 1093.16 Q1841.43 1092.79 1839.02 1092.05 L1839.02 1087.35 Q1841.1 1088.48 1843.33 1089.04 Q1845.55 1089.6 1848.03 1089.6 Q1852.03 1089.6 1854.37 1087.49 Q1856.71 1085.38 1856.71 1081.77 Q1856.71 1078.16 1854.37 1076.05 Q1852.03 1073.95 1848.03 1073.95 Q1846.15 1073.95 1844.28 1074.36 Q1842.42 1074.78 1840.48 1075.66 L1840.48 1058.3 Z" fill="#000000" fill-rule="evenodd" fill-opacity="1" /><path clip-path="url(#clip920)" d="M 0 0 M1013.14 1130.39 L1013.14 1137.17 Q1009.9 1134.15 1006.2 1132.65 Q1002.54 1131.16 998.407 1131.16 Q990.259 1131.16 985.93 1136.15 Q981.601 1141.12 981.601 1150.54 Q981.601 1159.93 985.93 1164.93 Q990.259 1169.89 998.407 1169.89 Q1002.54 1169.89 1006.2 1168.4 Q1009.9 1166.9 1013.14 1163.88 L1013.14 1170.59 Q1009.77 1172.88 1005.98 1174.03 Q1002.23 1175.17 998.025 1175.17 Q987.235 1175.17 981.029 1168.59 Q974.822 1161.97 974.822 1150.54 Q974.822 1139.08 981.029 1132.49 Q987.235 1125.87 998.025 1125.87 Q1002.29 1125.87 1006.05 1127.02 Q1009.83 1128.13 1013.14 1130.39 Z" fill="#000000" fill-rule="evenodd" fill-opacity="1" /><path clip-path="url(#clip920)" d="M 0 0 M1033.1 1142.71 Q1028.39 1142.71 1025.65 1146.4 Q1022.91 1150.06 1022.91 1156.46 Q1022.91 1162.86 1025.62 1166.55 Q1028.36 1170.21 1033.1 1170.21 Q1037.78 1170.21 1040.52 1166.52 Q1043.25 1162.83 1043.25 1156.46 Q1043.25 1150.13 1040.52 1146.43 Q1037.78 1142.71 1033.1 1142.71 M1033.1 1137.74 Q1040.74 1137.74 1045.1 1142.71 Q1049.46 1147.68 1049.46 1156.46 Q1049.46 1165.21 1045.1 1170.21 Q1040.74 1175.17 1033.1 1175.17 Q1025.43 1175.17 1021.07 1170.21 Q1016.74 1165.21 1016.74 1156.46 Q1016.74 1147.68 1021.07 1142.71 Q1025.43 1137.74 1033.1 1137.74 Z" fill="#000000" fill-rule="evenodd" fill-opacity="1" /><path clip-path="url(#clip920)" d="M 0 0 M1055 1160.18 L1055 1138.6 L1060.85 1138.6 L1060.85 1159.96 Q1060.85 1165.02 1062.83 1167.57 Q1064.8 1170.08 1068.75 1170.08 Q1073.49 1170.08 1076.23 1167.06 Q1079 1164.03 1079 1158.82 L1079 1138.6 L1084.85 1138.6 L1084.85 1174.25 L1079 1174.25 L1079 1168.78 Q1076.86 1172.02 1074.03 1173.62 Q1071.23 1175.17 1067.51 1175.17 Q1061.36 1175.17 1058.18 1171.36 Q1055 1167.54 1055 1160.18 M1069.73 1137.74 L1069.73 1137.74 Z" fill="#000000" fill-rule="evenodd" fill-opacity="1" /><path clip-path="url(#clip920)" d="M 0 0 M1120.63 1152.74 L1120.63 1174.25 L1114.77 1174.25 L1114.77 1152.93 Q1114.77 1147.87 1112.8 1145.35 Q1110.83 1142.84 1106.88 1142.84 Q1102.14 1142.84 1099.4 1145.86 Q1096.66 1148.88 1096.66 1154.1 L1096.66 1174.25 L1090.77 1174.25 L1090.77 1138.6 L1096.66 1138.6 L1096.66 1144.14 Q1098.76 1140.93 1101.59 1139.34 Q1104.46 1137.74 1108.18 1137.74 Q1114.33 1137.74 1117.48 1141.56 Q1120.63 1145.35 1120.63 1152.74 Z" fill="#000000" fill-rule="evenodd" fill-opacity="1" /><path clip-path="url(#clip920)" d="M 0 0 M1132.56 1128.48 L1132.56 1138.6 L1144.63 1138.6 L1144.63 1143.16 L1132.56 1143.16 L1132.56 1162.51 Q1132.56 1166.87 1133.74 1168.11 Q1134.95 1169.35 1138.61 1169.35 L1144.63 1169.35 L1144.63 1174.25 L1138.61 1174.25 Q1131.83 1174.25 1129.25 1171.74 Q1126.68 1169.19 1126.68 1162.51 L1126.68 1143.16 L1122.38 1143.16 L1122.38 1138.6 L1126.68 1138.6 L1126.68 1128.48 L1132.56 1128.48 Z" fill="#000000" fill-rule="evenodd" fill-opacity="1" /><polyline clip-path="url(#clip920)" style="stroke:#000000; stroke-width:4; stroke-opacity:1; fill:none" points="
  166.693,1035.39 166.693,47.2441 
  "/>
<polyline clip-path="url(#clip920)" style="stroke:#000000; stroke-width:4; stroke-opacity:1; fill:none" points="
  166.693,871.108 188.126,871.108 
  "/>
<polyline clip-path="url(#clip920)" style="stroke:#000000; stroke-width:4; stroke-opacity:1; fill:none" points="
  166.693,651.247 188.126,651.247 
  "/>
<polyline clip-path="url(#clip920)" style="stroke:#000000; stroke-width:4; stroke-opacity:1; fill:none" points="
  166.693,431.385 188.126,431.385 
  "/>
<polyline clip-path="url(#clip920)" style="stroke:#000000; stroke-width:4; stroke-opacity:1; fill:none" points="
  166.693,211.524 188.126,211.524 
  "/>
<path clip-path="url(#clip920)" d="M 0 0 M116.786 884.452 L124.425 884.452 L124.425 858.087 L116.115 859.754 L116.115 855.494 L124.378 853.828 L129.054 853.828 L129.054 884.452 L136.693 884.452 L136.693 888.388 L116.786 888.388 L116.786 884.452 Z" fill="#000000" fill-rule="evenodd" fill-opacity="1" /><path clip-path="url(#clip920)" d="M 0 0 M120.374 664.591 L136.693 664.591 L136.693 668.527 L114.749 668.527 L114.749 664.591 Q117.411 661.837 121.994 657.207 Q126.601 652.554 127.781 651.212 Q130.027 648.689 130.906 646.953 Q131.809 645.193 131.809 643.504 Q131.809 640.749 129.865 639.013 Q127.943 637.277 124.841 637.277 Q122.642 637.277 120.189 638.041 Q117.758 638.804 114.98 640.355 L114.98 635.633 Q117.804 634.499 120.258 633.92 Q122.712 633.342 124.749 633.342 Q130.119 633.342 133.314 636.027 Q136.508 638.712 136.508 643.203 Q136.508 645.332 135.698 647.253 Q134.911 649.152 132.804 651.744 Q132.226 652.415 129.124 655.633 Q126.022 658.827 120.374 664.591 Z" fill="#000000" fill-rule="evenodd" fill-opacity="1" /><path clip-path="url(#clip920)" d="M 0 0 M129.564 430.031 Q132.92 430.749 134.795 433.017 Q136.693 435.286 136.693 438.619 Q136.693 443.735 133.175 446.536 Q129.656 449.337 123.175 449.337 Q120.999 449.337 118.684 448.897 Q116.392 448.48 113.939 447.624 L113.939 443.11 Q115.883 444.244 118.198 444.823 Q120.513 445.402 123.036 445.402 Q127.434 445.402 129.726 443.665 Q132.04 441.929 132.04 438.619 Q132.04 435.564 129.888 433.851 Q127.758 432.115 123.939 432.115 L119.911 432.115 L119.911 428.272 L124.124 428.272 Q127.573 428.272 129.402 426.906 Q131.23 425.517 131.23 422.925 Q131.23 420.263 129.332 418.851 Q127.457 417.416 123.939 417.416 Q122.017 417.416 119.818 417.832 Q117.619 418.249 114.98 419.129 L114.98 414.962 Q117.642 414.221 119.957 413.851 Q122.295 413.48 124.355 413.48 Q129.679 413.48 132.781 415.911 Q135.883 418.318 135.883 422.439 Q135.883 425.309 134.24 427.3 Q132.596 429.267 129.564 430.031 Z" fill="#000000" fill-rule="evenodd" fill-opacity="1" /><path clip-path="url(#clip920)" d="M 0 0 M127.11 198.318 L115.304 216.767 L127.11 216.767 L127.11 198.318 M125.883 194.244 L131.763 194.244 L131.763 216.767 L136.693 216.767 L136.693 220.656 L131.763 220.656 L131.763 228.804 L127.11 228.804 L127.11 220.656 L111.508 220.656 L111.508 216.142 L125.883 194.244 Z" fill="#000000" fill-rule="evenodd" fill-opacity="1" /><path clip-path="url(#clip920)" d="M 0 0 M44.9722 607.201 Q45.6724 605.132 47.9641 603.191 Q50.2557 601.217 54.2661 599.244 L67.2522 592.719 L67.2522 599.626 L55.0618 605.705 Q50.2875 608.06 48.728 610.288 Q47.1684 612.485 47.1684 616.304 L47.1684 623.306 L67.2522 623.306 L67.2522 629.736 L19.7322 629.736 L19.7322 615.222 Q19.7322 607.074 23.1378 603.063 Q26.5435 599.053 33.4184 599.053 Q37.9062 599.053 40.8663 601.154 Q43.8264 603.222 44.9722 607.201 M25.0157 623.306 L41.8848 623.306 L41.8848 615.222 Q41.8848 610.575 39.7523 608.22 Q37.588 605.832 33.4184 605.832 Q29.2489 605.832 27.1482 608.22 Q25.0157 610.575 25.0157 615.222 L25.0157 623.306 Z" fill="#000000" fill-rule="evenodd" fill-opacity="1" /><path clip-path="url(#clip920)" d="M 0 0 M49.3327 571.808 Q49.3327 578.905 50.9559 581.643 Q52.5792 584.38 56.4941 584.38 Q59.6133 584.38 61.4594 582.343 Q63.2736 580.274 63.2736 576.741 Q63.2736 571.871 59.8361 568.943 Q56.3668 565.983 50.6377 565.983 L49.3327 565.983 L49.3327 571.808 M46.9137 560.127 L67.2522 560.127 L67.2522 565.983 L61.8413 565.983 Q65.0878 567.988 66.6474 570.98 Q68.1752 573.972 68.1752 578.301 Q68.1752 583.775 65.1196 587.022 Q62.0323 590.236 56.8761 590.236 Q50.8605 590.236 47.8049 586.226 Q44.7494 582.184 44.7494 574.195 L44.7494 565.983 L44.1765 565.983 Q40.1342 565.983 37.9381 568.657 Q35.7101 571.298 35.7101 576.105 Q35.7101 579.16 36.4421 582.056 Q37.1742 584.953 38.6383 587.626 L33.2275 587.626 Q31.9861 584.412 31.3814 581.388 Q30.7448 578.364 30.7448 575.5 Q30.7448 567.765 34.7552 563.946 Q38.7656 560.127 46.9137 560.127 Z" fill="#000000" fill-rule="evenodd" fill-opacity="1" /><path clip-path="url(#clip920)" d="M 0 0 M21.4827 548.191 L31.6042 548.191 L31.6042 536.128 L36.1557 536.128 L36.1557 548.191 L55.5074 548.191 Q59.8679 548.191 61.1093 547.013 Q62.3506 545.804 62.3506 542.144 L62.3506 536.128 L67.2522 536.128 L67.2522 542.144 Q67.2522 548.923 64.7377 551.501 Q62.1914 554.079 55.5074 554.079 L36.1557 554.079 L36.1557 558.376 L31.6042 558.376 L31.6042 554.079 L21.4827 554.079 L21.4827 548.191 Z" fill="#000000" fill-rule="evenodd" fill-opacity="1" /><path clip-path="url(#clip920)" d="M 0 0 M31.6042 529.985 L31.6042 524.129 L67.2522 524.129 L67.2522 529.985 L31.6042 529.985 M17.727 529.985 L17.727 524.129 L25.143 524.129 L25.143 529.985 L17.727 529.985 Z" fill="#000000" fill-rule="evenodd" fill-opacity="1" /><path clip-path="url(#clip920)" d="M 0 0 M45.7361 488.353 L67.2522 488.353 L67.2522 494.21 L45.927 494.21 Q40.8663 494.21 38.3518 496.183 Q35.8374 498.156 35.8374 502.103 Q35.8374 506.846 38.8611 509.583 Q41.8848 512.32 47.1047 512.32 L67.2522 512.32 L67.2522 518.208 L31.6042 518.208 L31.6042 512.32 L37.1424 512.32 Q33.9277 510.219 32.3363 507.387 Q30.7448 504.522 30.7448 500.798 Q30.7448 494.655 34.5643 491.504 Q38.3518 488.353 45.7361 488.353 Z" fill="#000000" fill-rule="evenodd" fill-opacity="1" /><path clip-path="url(#clip920)" d="M 0 0 M49.0144 458.753 Q42.6487 458.753 39.1476 461.395 Q35.6464 464.004 35.6464 468.747 Q35.6464 473.458 39.1476 476.099 Q42.6487 478.709 49.0144 478.709 Q55.3483 478.709 58.8494 476.099 Q62.3506 473.458 62.3506 468.747 Q62.3506 464.004 58.8494 461.395 Q55.3483 458.753 49.0144 458.753 M62.828 452.896 Q71.931 452.896 76.3551 456.939 Q80.8111 460.981 80.8111 469.32 Q80.8111 472.407 80.3337 475.144 Q79.8881 477.882 78.9332 480.46 L73.2359 480.46 Q74.6364 477.882 75.3048 475.367 Q75.9732 472.853 75.9732 470.243 Q75.9732 464.482 72.9495 461.617 Q69.9576 458.753 63.8783 458.753 L60.9819 458.753 Q64.133 460.567 65.6926 463.4 Q67.2522 466.232 67.2522 470.179 Q67.2522 476.736 62.2551 480.746 Q57.258 484.757 49.0144 484.757 Q40.739 484.757 35.7419 480.746 Q30.7448 476.736 30.7448 470.179 Q30.7448 466.232 32.3044 463.4 Q33.864 460.567 37.0151 458.753 L31.6042 458.753 L31.6042 452.896 L62.828 452.896 Z" fill="#000000" fill-rule="evenodd" fill-opacity="1" /><path clip-path="url(#clip922)" d="
M606.08 981.038 L217.242 981.038 L217.242 761.177 L606.08 761.177 L606.08 981.038 L606.08 981.038  Z
  " fill="#009af9" fill-rule="evenodd" fill-opacity="1"/>
<polyline clip-path="url(#clip922)" style="stroke:#000000; stroke-width:4; stroke-opacity:1; fill:none" points="
  606.08,981.038 217.242,981.038 217.242,761.177 606.08,761.177 606.08,981.038 
  "/>
<path clip-path="url(#clip922)" d="
M1902.21 761.177 L217.242 761.177 L217.242 541.316 L1902.21 541.316 L1902.21 761.177 L1902.21 761.177  Z
  " fill="#009af9" fill-rule="evenodd" fill-opacity="1"/>
<polyline clip-path="url(#clip922)" style="stroke:#000000; stroke-width:4; stroke-opacity:1; fill:none" points="
  1902.21,761.177 217.242,761.177 217.242,541.316 1902.21,541.316 1902.21,761.177 
  "/>
<path clip-path="url(#clip922)" d="
M1707.79 541.316 L217.242 541.316 L217.242 321.455 L1707.79 321.455 L1707.79 541.316 L1707.79 541.316  Z
  " fill="#009af9" fill-rule="evenodd" fill-opacity="1"/>
<polyline clip-path="url(#clip922)" style="stroke:#000000; stroke-width:4; stroke-opacity:1; fill:none" points="
  1707.79,541.316 217.242,541.316 217.242,321.455 1707.79,321.455 1707.79,541.316 
  "/>
<path clip-path="url(#clip922)" d="
M1189.34 321.455 L217.242 321.455 L217.242 101.594 L1189.34 101.594 L1189.34 321.455 L1189.34 321.455  Z
  " fill="#009af9" fill-rule="evenodd" fill-opacity="1"/>
<polyline clip-path="url(#clip922)" style="stroke:#000000; stroke-width:4; stroke-opacity:1; fill:none" points="
  1189.34,321.455 217.242,321.455 217.242,101.594 1189.34,101.594 1189.34,321.455 
  "/>
</svg>
